<?xml version="1.0" encoding="UTF-8"?>
<svg xmlns="http://www.w3.org/2000/svg" id="Capa_1" data-name="Capa 1" viewBox="0 0 666 621.07">
  <defs>
    <style>
      .cls-1 {
        fill: #bf0024;
      }

      .cls-2 {
        fill: #cb0017;
      }
    </style>
  </defs>
  <path class="cls-2" d="M633.54,177.22c0-63.45-14.35-123.54-39.99-177.22H0V524.28c64.01,40.98,140.1,64.74,221.74,64.74,227.43,0,411.8-184.37,411.8-411.8Z"></path>
  <path class="cls-1" d="M666,192.92c0-69.4-16.52-134.95-45.83-192.92h-39.23c25.09,52.54,39.14,111.35,39.14,173.46,0,222.6-180.45,403.05-403.05,403.05-79.91,0-154.38-23.25-217.03-63.36v35.83c68.03,45.54,149.84,72.1,237.85,72.1,236.46,0,428.15-191.69,428.15-428.15Z"></path>
</svg>
